<?xml version="1.0" standalone="no"?>
<!DOCTYPE svg PUBLIC "-//W3C//DTD SVG 1.1//EN" "http://www.w3.org/Graphics/SVG/1.1/DTD/svg11.dtd" >
<!--
2013-9-30: Created.
-->
<svg>
<metadata>
Created by iconfont
</metadata>
<defs>

<font id="iconfont" horiz-adv-x="1024" >
  <font-face
    font-family="iconfont"
    font-weight="500"
    font-stretch="normal"
    units-per-em="1024"
    ascent="896"
    descent="-128"
  />
    <missing-glyph />
    
    <glyph glyph-name="weixie" unicode="&#59052;" d="M291.69538438 564.89274937c-24.24268594-32.27946469-37.04015438-70.66803375-37.04015439-111.09744468l0-168.36093563c0-9.2960025 7.51985531-16.83791531 16.83887438-16.83791531 9.31422469 0 16.83408 7.54191281 16.83408 16.83791531L288.32818438 453.79530469c0 33.0888975 10.48233844 64.49659219 30.28369687 90.87410718 5.61423657 7.47478031 4.10949844 18.00219375-3.2991075 23.56752001C307.81497687 573.82911094 297.28660437 572.27833781 291.69538438 564.89274937zM496.86822125 71.46614906000002c0 16.54348969-13.38727969 29.93076938-29.93076938 29.93076938L149.74552999 101.39691749999997c23.55888844 32.61992531 47.81883655 78.42093562 51.4430597 132.11486906 3.21471187 47.2923225 2.57215312 124.51541344 2.10414 180.89754469l-0.29250844 43.14158438c0 73.7149125 31.27534688 144.0405675 85.81611562 192.99874687 53.08014563 47.61360188 120.7741875 69.56513437 191.04038157 62.02417969 69.03861937-7.51218281 132.52438031-46.99981406 174.26288531-108.351705 9.35354531-13.76706094 28.05967689-17.1870075 41.56395938-7.920735 13.67882812 9.29504345 17.1870075 27.91390219 7.89196406 41.59273031-42.04923469 61.88224125-102.49099406 105.81695438-170.28765281 125.02562437l0 3.96180656c0 44.924445-36.01014188 81.46110187-80.3208 81.46110188-44.31065813 0-80.3208-36.53569781-80.3208-81.46110188l0-3.75273468c-45.12392625-12.40234219-87.35729719-35.34264844-123.81339469-68.0335425-67.16848594-60.27009001-105.69227906-146.84576812-105.69227906-237.54341156l0.29250843-43.63836938c0.46801312-55.41829219 1.11057187-131.3255775-1.98713718-176.33825437-5.43681375-80.64303844-77.10608812-142.66625906-77.80714875-143.30977688-9.58755188-8.12597063-13.03626938-21.36651657-8.7100275-33.11670937 4.32624281-11.77896469 15.54992156-19.61242688 28.05967687-19.61242688l383.95089656 0C483.48190063 41.53633875000003 496.86822125 54.92265938000003 496.86822125 71.46614906000002zM452.96707531 788.4811275c9.01404375 0 16.87244156-6.50710594 19.51460438-15.22480594-13.090935 0.84012188-26.11569655 0.84012188-39.02057719 0.02493469C436.10901875 781.9855303100001 443.96070313 788.4811275 452.96707531 788.4811275zM469.66592937-24.25496155999997c-26.21447812 0-47.96461125 17.33661844-56.01002156 40.91660531l-61.78633687 0c9.20009813-56.86836563 58.43640094-100.77718406 117.79635937-100.77718406 59.36379469 0 108.59626125 43.90881938 117.79635938 100.77718406l-61.78633688 0C517.63054063-6.918343110000023 495.88424375-24.25496155999997 469.66592937-24.25496155999997zM970.88091687 462.03827813c-65.21299781 3.21375281-204.96376594 102.85447125-204.96376593 102.85447125l-2.33143313 0c0 0-135.91076062-99.6416775-201.12375843-102.85447125-5.43681375-37.50241219 3.51489187-268.92808969 49.31973843-361.07197032 30.32493563-62.13926531 123.5544525-117.45781687 151.41656625-131.51354906 0 0 0.83628563-1.04823375 2.59421063-1.04823375 0.76723406 0 1.71381001 0.20139937 2.84260312 0.77778375 35.97753469 18.42896813 116.43739594 62.1421425 152.92609969 131.784C972.025055 205.96711687000004 976.21223657 423.63532406 970.88091687 462.03827813zM868.5356975 128.74786125000003c-16.89833531-32.25069375-51.16110094-63.34478156-102.00571875-92.62436063-38.38473187 23.32871813-85.98394781 60.42161906-101.14641564 91.487895-29.8569225 60.06581437-43.05814781 211.97532844-44.55617248 287.22183282 50.91654563 18.32251406 106.82778562 52.72338187 144.35033812 78.03923718 38.50173562-25.35997031 96.11239969-60.05622375 147.8729025-78.32982656C912.66126031 341.43575906 901.81736188 198.062685 868.5356975 128.74786125000003z"  horiz-adv-x="1024" />

    
    <glyph glyph-name="shenji1" unicode="&#59002;" d="M846.08 123.36000000000001c-18.72 0-34.08-15.36-34.08-34.56V-14.399999999999977H212.96v339.36h4.32c18.72 0 34.08 15.36 34.08 34.56s-15.36 34.56-34.08 34.56h-4.32V461.76h4.32c18.72 0 34.08 15.36 34.08 34.56s-15.36 34.56-34.08 34.56h-4.32V599.04h4.32c18.72 0 34.08 15.36 34.08 34.56s-15.36 34.56-34.08 34.56h-4.32v115.2h599.04v-252.96H379.04c-18.72 0-34.08-15.36-34.08-34.56s15.36-34.56 34.08-34.56h467.52c18.72 0 34.08 15.36 34.08 34.56V786.24c0 36.48-28.32 66.24-63.36 66.24H208.64c-35.04 0-63.36-29.76-63.36-66.24v-118.08h-38.4c-18.72 0-34.08-15.36-34.08-34.56s15.36-34.56 34.08-34.56h38.4v-68.16h-38.4c-18.72 0-34.08-15.36-34.08-34.56s15.36-34.56 34.08-34.56h38.4V393.6h-38.4c-18.72 0-34.08-15.36-34.08-34.56s15.36-34.56 34.08-34.56h38.4v-342.24c0-36.48 28.32-66.24 63.36-66.24h608.16c35.04 0 63.36 29.76 63.36 66.24v105.6c0 20.16-14.88 35.52-34.08 35.52zM484.16 389.76c-12.96 24-37.92 40.8-67.2 40.8-41.76 0-75.84-34.56-75.84-77.28s34.08-77.28 75.84-77.28c31.2 0 57.6 18.72 69.6 46.08h185.76c18.24 0 33.12 14.88 33.12 33.6s-14.88 33.6-33.12 33.6l-188.16 0.48z m-67.2-69.6c-18.24 0-32.64 14.88-32.64 33.12 0 18.24 14.4 33.12 32.64 33.12s32.64-14.88 32.64-33.12c0.48-18.24-14.4-33.12-32.64-33.12z m522.72 68.16c-12.96 13.92-34.56 13.92-48 0.48l-194.4-192-54.72 57.6c-12.96 13.92-34.56 14.4-48 0.96s-13.92-35.04-0.96-48.96l78.24-82.56c6.24-6.72 14.88-10.56 24-10.56h0.48c8.64 0 17.28 3.36 23.52 9.6l218.88 216.48c13.92 13.44 14.4 35.04 0.96 48.96z"  horiz-adv-x="1024" />

    
    <glyph glyph-name="rizhi" unicode="&#59224;" d="M783.018667-94.549333H240.981333c-68.881067 0-124.859733 69.905067-124.859733 156.0576v47.5136c0 18.158933 11.741867 32.768 26.282667 32.768 14.5408 0 26.282667-14.609067 26.282666-32.768v-47.5136c0-49.834667 32.426667-90.385067 72.2944-90.385067h542.173867c39.799467 0 72.2944 40.618667 72.2944 90.385067V276.6848c0 18.158933 11.741867 32.768 26.282667 32.768 14.472533 0 26.2144-14.609067 26.2144-32.768v-215.176533c0.068267-86.016-55.978667-156.125867-124.791467-156.125867zM142.404267 273.134933c-14.5408 0-26.282667 14.609067-26.282667 32.768V499.029333c0 18.158933 11.741867 32.836267 26.282667 32.836267 14.5408 0 26.282667-14.677333 26.282666-32.768v-193.1264c0-18.158933-11.741867-32.768-26.282666-32.768z m739.328 222.549334c-14.5408 0-26.282667 14.609067-26.282667 32.768V739.191467c0 49.834667-32.494933 90.385067-72.362667 90.385066H240.981333c-39.867733 0-72.362667-40.5504-72.362666-90.385066v-43.008c0-18.158933-11.6736-32.768-26.2144-32.768s-26.282667 14.609067-26.282667 32.768v43.008C116.053333 825.275733 172.032 895.317333 240.981333 895.317333h542.173867c68.8128 0 124.928-69.973333 124.928-156.125866v-210.602667c0-18.158933-11.8784-32.904533-26.350933-32.904533zM215.176533 564.770133H61.303467c-14.5408 0-26.282667 14.677333-26.282667 32.836267s11.741867 32.836267 26.282667 32.836267h153.873066c14.5408 0 26.282667-14.677333 26.282667-32.768 0-18.2272-11.741867-32.904533-26.282667-32.904534zM215.176533 174.557867H61.303467c-14.5408 0-26.282667 14.609067-26.282667 32.768 0 18.2272 11.741867 32.836267 26.282667 32.836266h153.873066c14.5408 0 26.282667-14.609067 26.282667-32.768s-11.741867-32.836267-26.282667-32.836266zM678.775467 564.770133H364.885333c-14.5408 0-26.282667 14.677333-26.282666 32.836267s11.741867 32.836267 26.282666 32.836267h313.9584c14.5408 0 26.282667-14.677333 26.282667-32.768 0-18.2272-11.810133-32.904533-26.350933-32.904534zM678.775467 369.664H364.885333c-14.5408 0-26.282667 14.677333-26.282666 32.768 0 18.2272 11.741867 32.904533 26.282666 32.904533h313.9584c14.5408 0 26.282667-14.677333 26.282667-32.836266s-11.810133-32.836267-26.350933-32.836267zM678.775467 174.557867H364.885333c-14.5408 0-26.282667 14.609067-26.282666 32.768 0 18.2272 11.741867 32.836267 26.282666 32.836266h313.9584c14.5408 0 26.282667-14.609067 26.282667-32.768s-11.810133-32.836267-26.350933-32.836266zM885.418667 270.336c-57.344 0-104.0384 58.368-104.0384 130.048 0 71.816533 46.6944 130.184533 104.0384 130.184533 57.412267 0 104.106667-58.368 104.106666-130.184533 0-71.748267-46.6944-130.048-104.106666-130.048z m0 194.491733c-28.398933 0-51.4048-28.945067-51.4048-64.512 0-35.498667 23.005867-64.3072 51.4048-64.3072 28.4672 0 51.541333 28.808533 51.541333 64.3072 0 35.566933-23.074133 64.512-51.541333 64.512z"  horiz-adv-x="1024" />

    
    <glyph glyph-name="list" unicode="&#59270;" d="M452.98969987 121.56657152000002a70.84092549 70.84092549 0 1 1 0-141.77129658h648.48069411a70.84092549 70.84092549 0 1 1 0 141.77129658h-648.48069411zM169.89433478 121.92435396999997a70.93037109 70.93037109 0 1 1 0-141.86074219 70.93037109 70.93037109 0 0 1 0 141.86074219z m283.09536509 354.38351862a70.84092549 70.84092549 0 1 1 0-141.86074218h648.48069411a70.84092549 70.84092549 0 1 1 0 141.86074218h-648.48069411zM169.89433478 476.66565505A70.84092549 70.84092549 0 1 1 169.62599794 334.98380410000004a70.84092549 70.84092549 0 0 1 0.17889121 141.68185095zM1101.38094836 689.00954027a70.93037109 70.93037109 0 0 1 0 141.77129658h-648.48069411a70.93037109 70.93037109 0 0 1 0-141.77129658h648.48069411zM98.96396369 760.29769381a70.84092549 70.84092549 0 1 1 141.68185096 0A70.84092549 70.84092549 0 0 1 98.96396369 760.2082482000001z"  horiz-adv-x="1229" />

    
    <glyph glyph-name="duanxin" unicode="&#59250;" d="M204.8 672l278.4-278.4c12.8-12.8 35.2-12.8 48 0l288 278.4H204.8z m688-19.2l-320-307.2c-38.4-35.2-99.2-35.2-137.6 0L131.2 656c-3.2-6.4-3.2-9.6-3.2-16v-512c0-19.2 12.8-32 32-32h704c19.2 0 32 12.8 32 32V640c0 3.2 0 9.6-3.2 12.8zM160 736h704c54.4 0 96-41.6 96-96v-512c0-54.4-41.6-96-96-96H160c-54.4 0-96 41.6-96 96V640c0 54.4 41.6 96 96 96z"  horiz-adv-x="1024" />

    
    <glyph glyph-name="logout-user" unicode="&#58880;" d="M925.1108 555.9684c-22.4856 53.1594-54.6696 100.8972-95.6592 141.8868-40.9896 40.9878-88.7274 73.1736-141.8868 95.6574C632.5154 816.7938 574.0532 828.6 513.7982 828.6s-118.7172-11.8062-173.7684-35.0892c-53.1594-22.4856-100.8972-54.6678-141.8868-95.6574s-73.1718-88.7256-95.6574-141.8868C79.2044 500.919 67.3982 442.455 67.3982 382.20180000000005c0-60.255 11.8062-118.7172 35.0892-173.7666 22.4856-53.1594 54.6696-100.899 95.6574-141.8868 40.9896-40.9878 88.7256-73.1718 141.8868-95.6592C395.081-52.393800000000056 453.5432-64.20000000000005 513.7982-64.20000000000005s118.7172 11.8062 173.7666 35.0892c53.1594 22.4856 100.8972 54.6696 141.8868 95.6592 40.9878 40.9878 73.1718 88.7274 95.6592 141.8868C948.392 263.4846 960.2 321.94680000000005 960.2 382.20180000000005c0 60.2532-11.808 118.7172-35.0892 173.7666z m-42.3864-329.6052c-19.8918-47.0286-48.2706-89.3214-84.339-125.7606-29.709 100.8558-112.8672 179.2224-217.1772 203.193 57.3642 25.4502 97.3152 82.3788 97.3152 148.5306 0 89.8758-73.7514 162.738-164.727 162.738s-164.7252-72.8622-164.7252-162.738c0-66.1518 39.9528-123.0804 97.317-148.5306-104.3082-23.9688-187.47-102.3372-217.179-203.1948-36.0684 36.441-64.4472 78.7338-84.3372 125.7624-20.871 49.3452-31.4532 101.7792-31.4532 155.8386s10.5822 106.4934 31.455 155.8368c20.1654 47.6748 49.0356 90.495 85.8132 127.2726 36.7794 36.7758 79.5996 65.6496 127.2744 85.8132C407.3066 771.9972 459.737 782.5794 513.8 782.5794c54.0612 0 106.4916-10.5822 155.8386-31.455 47.6748-20.1636 90.4932-49.0356 127.2708-85.8114 36.7776-36.7794 65.6532-79.5978 85.8168-127.2744 20.8728-49.3452 31.455-101.7756 31.455-155.8386s-10.584-106.4916-31.4568-155.8368z"  horiz-adv-x="1024" />

    
    <glyph glyph-name="zhankai1" unicode="&#59076;" d="M428.2140448 18.27271146999999h-214.8124448l236.06613333 235.79306666a44.73742187 44.73742187 0 0 1-63.2604448 63.16942187l-239.8435552-239.3884448v212.67342293a44.73742187 44.73742187 0 0 1-89.4748448 0v-316.93937813c0-24.66702187 20.02488853-44.69191147 44.73742294-44.69191147h326.4512a44.73742187 44.73742187 0 0 1 0.13653333 89.38382294zM922.46471147 839.11111147h-326.4512a44.73742187 44.73742187 0 1 1 0-89.38382294h214.6759104l-236.02062187-235.70204373a44.60088853 44.60088853 0 0 1 31.63022187-76.27662293 44.50986667 44.50986667 0 0 1 31.58471146 13.1072l239.75253334 239.3884448v-212.67342187a44.73742187 44.73742187 0 0 1 89.4748448 0V794.51022187a44.55537813 44.55537813 0 0 1-44.6464 44.6008896z"  horiz-adv-x="1024" />

    
    <glyph glyph-name="Cloudresources" unicode="&#58892;" d="M474.00000031 103.99999968999998H951.99999969v-79.99999969H474.00000031zM474.00000031 246H951.99999969v-79.99999969H474.00000031zM474.00000031 385.99999969H951.99999969v-79.99999969H474.00000031zM276.00000031 96A130.00000031 130.00000031 0 0 0 140 223.99999968999998c-1.99999969 85.99999969 31.99999969 118.00000031 102 148.00000031a202.00000031 202.00000031 0 0 0-13.99999969 70.00000031 90 90 0 0 0 31.99999969 75.99999938 94.00000031 94.00000031 0 0 0 58.00000031 18l37.99999969-3.99999938c13.99999969 85.99999969 67.99999969 144 151.99999969 144a175.99999969 175.99999969 0 0 0 170.00000062-180v-6a264 264 0 0 0 57.99999938 9.99999938 133.99999969 133.99999969 0 0 0 118.00000031-75.99999938H932a208.00000031 208.00000031 0 0 1-193.99999969 144A241.99999969 241.99999969 0 0 1 507.99999969 744a214.00000031 214.00000031 0 0 1-204-139.99999969 162 162 0 0 1-84-30 157.99999969 157.99999969 0 0 1-61.99999969-134.00000062 235.99999969 235.99999969 0 0 1 1.99999969-31.99999969C108.00000031 376.00000031 68 324 69.99999969 223.99999968999998a199.99999969 199.99999969 0 0 1 206.00000062-198h151.99999969v68.00000062h-151.99999969z"  horiz-adv-x="1024" />

    
    <glyph glyph-name="ruleconfig" unicode="&#59170;" d="M959.89326172 758.47558594v-74.82392578H361.30009766V758.47558594h598.59316406zM174.23808594 608.82158203c61.72734375 0 112.23896484 50.51162109 112.23896484 112.23896484 0 61.73261719-50.51074219 112.23808594-112.23896484 112.23808594C112.50546875 833.29863281 62 782.79316406 62 721.06054688c0-61.72734375 50.50546875-112.23896484 112.23808594-112.23896485z m149.64785156-187.06201172H62v-74.82304686h261.88505859v74.82304686z m374.12314453-74.82304686h261.88505859v74.82304686H698.00908203v-74.82304686z m-74.82392578 37.41591796c0 61.72646484-50.50458985 112.23808594-112.23808594 112.23808593-61.72822266 0-112.23896484-50.51074219-112.23896483-112.23808593 0-61.73349609 50.51074219-112.23808594 112.23896483-112.23808594 61.73349609 0 112.23808594 50.50458985 112.23808594 112.23808594zM62 10.229296869999985h598.59931641v74.82304688H62v-74.82304688z m785.66132814 149.64521485c-61.73349609 0-112.23808594-50.50283203-112.23808595-112.23808594 0-61.72734375 50.50458985-112.23017578 112.23808595-112.23017579 61.72734375 0 112.23193359 50.50283203 112.23193358 112.23017579 0 61.73525391-50.50458985 112.23808594-112.23193358 112.23808594z m0 0"  horiz-adv-x="1024" />

    
    <glyph glyph-name="rongliangfenxi" unicode="&#59461;" d="M1015.305718 741.53047c0 32.223776-25.574426 58.821179-57.286713 60.867132L334.514509 894.977023h-3.068931c-33.758242 0-61.378621-27.62038-61.378621-60.867133v-61.89011l-210.221778 31.200799H57.287736c-31.712288 0-57.286713-25.574426-57.286713-57.286713V21.354645c0-31.712288 25.574426-57.286713 57.286713-57.286713h2.045954l210.733267 23.528472v-54.217783c0-33.758242 27.62038-61.378621 61.378621-61.378621h2.045954l628.107893 64.959041c32.223776 1.534466 58.30969 28.131868 58.30969 61.378621l-4.603397 743.192808zM81.327696 48.975025V717.490509l188.739261-27.620379v-619.412588l-188.739261-21.482517z m270.577423-92.579421V810.06993l582.585414-85.93007 4.091909-706.877123-586.677323-60.867133zM822.474549 608.031968c-18.925075 6.649351-39.384615-3.068931-46.033966-21.482517l-96.671328-266.997003-101.274726 67.004995c-9.206793 6.137862-20.45954 7.672328-30.68931 4.091908-10.22977-3.068931-18.925075-11.252747-22.505495-21.482518l-78.76923-204.595404c-7.160839-18.413586 2.045954-39.384615 20.45954-46.545455 4.091908-1.534466 8.695305-2.557443 12.787213-2.557443 14.321678 0 28.131868 8.695305 33.758242 23.016983l62.401598 162.653347 101.786214-67.516483c9.206793-6.137862 20.45954-7.672328 31.200799-4.091908 10.22977 3.58042 18.925075 11.764236 22.505494 21.994006l112.527473 309.962037c6.649351 19.436563-3.068931 39.896104-21.482518 46.545455z"  horiz-adv-x="1024" />

    
    <glyph glyph-name="xiala" unicode="&#58926;" d="M561.873 170.835c-11.262-11.262-26.545-21.72-41.025-18.502-14.479-2.413-28.154 8.849-39.415 18.502L133.129 520.748c-17.697 17.696-17.697 46.655 0 64.352s46.655 17.696 64.351 0l324.173-333.021 324.977 333.02c17.696 17.697 46.655 17.697 64.351 0s17.697-46.655 0-64.351L561.873 170.835z"  horiz-adv-x="1024" />

    
    <glyph glyph-name="gongju" unicode="&#59088;" d="M245.33333375 197.33333344000005c-42.66666656 0-79.99999969-37.33333312-80.00000062-79.99999969s37.33333312-79.99999969 80.00000062-80.00000062 79.99999969 37.33333312 79.99999969 80.00000062-37.33333312 79.99999969-79.99999969 79.99999969z m0-112.00000031c-16.00000031 0-26.66666625 10.66666687-26.66666719 26.66666718s10.66666687 26.66666625 26.66666719 26.66666625 26.66666625-10.66666687 26.66666625-26.66666625c0-10.66666687-16.00000031-26.66666625-26.66666625-26.66666718zM944 624c-16.00000031 5.33333344-31.99999969 0-42.66666656-10.66666687l-133.33333313-133.33333313c-5.33333344-5.33333344-21.33333375-5.33333344-32.00000062-5.33333344-48 5.33333344-101.33333344 16.00000031-106.66666594 21.33333375-5.33333344 10.66666687-16.00000031 69.33333375-21.33333375 117.33333282 0 10.66666687 0 21.33333375 5.33333344 26.66666718l133.33333312 133.33333313c5.33333344 5.33333344 16.00000031 21.33333375 10.66666688 42.66666656-5.33333344 5.33333344-10.66666687 21.33333375-37.33333313 21.33333375C618.66666688 837.33333375 485.33333375 826.66666687 416 757.33333312l-16.00000031-15.99999937C320 661.33333313 303.99999969 538.66666688 362.66666656 437.33333344l-256.00000031-223.99999969c-37.33333312-37.33333312-79.99999969-154.66666688 0-234.6666675 31.99999969-31.99999969 69.33333375-48 112.00000031-48 53.33333344 0 96 21.33333375 122.66666719 48 0 0 160.00000031 181.33333312 223.99999969 250.66666687 101.33333344-58.66666688 223.99999969-42.66666656 309.33333281 42.66666657l16.00000031 16.00000031c74.66666625 74.66666625 79.99999969 234.66666656 79.99999969 304.00000031-5.33333344 21.33333375-16.00000031 31.99999969-26.66666625 31.99999969zM298.66666625 16.00000031000002c-10.66666687-10.66666687-42.66666656-31.99999969-85.33333312-32.00000062-26.66666625 0-53.33333344 10.66666687-74.66666625 32.00000062-58.66666688 58.66666688-21.33333375 133.33333312 0 159.99999938l288 256.00000031-10.66666688 16.00000031c-53.33333344 79.99999969-48 186.66666656 21.33333375 255.99999938l15.99999938 16.00000031c53.33333344 53.33333344 160.00000031 64.00000031 224.00000062 64.00000031l-106.66666687-106.66666687c-21.33333375-21.33333375-16.00000031-64.00000031-16.00000032-69.33333375 5.33333344-85.33333312 21.33333375-133.33333312 31.99999969-149.33333344 16.00000031-16.00000031 64.00000031-26.66666625 144-37.33333313 16.00000031 0 53.33333344 0 74.66666719 21.33333375l106.66666687 106.66666688c0-69.33333375-10.66666687-175.99999969-64.00000031-224.00000063l-16.00000031-15.99999937c-69.33333375-69.33333375-175.99999969-79.99999969-261.33333281-21.33333375l-21.33333375 16.00000031-15.99999938-16.00000031"  horiz-adv-x="1024" />

    
    <glyph glyph-name="zhangdanguanli" unicode="&#59199;" d="M359 478.1h-99.6c-13.8 0-25-11.2-25-25s11.2-25 25-25H359v-48.2c0-13.8 11.2-25 25-25s25 11.2 25 25v48.2h98.6c13.8 0 25 11.2 25 25s-11.2 25-25 25H409v44h98.6c13.8 0 25 11.2 25 25s-11.2 25-25 25h-63.3l54.6 54.6c9.8 9.8 9.8 25.6 0 35.4-9.8 9.8-25.6 9.8-35.4 0l-79.6-79.6-79.1 79.1c-9.8 9.8-25.6 9.8-35.4 0-9.8-9.8-9.8-25.6 0-35.4l54.1-54.1h-64.2c-13.8 0-25-11.2-25-25s11.2-25 25-25h99.6v-44h0.1zM795.6-62.8c-15.3 0-30.2 7.1-39.8 20-7.5 10.1-19.1 15.9-31.6 15.9s-24.1-5.8-31.6-15.9c-13.7-18.3-38-24.9-59-16.1-20.3 8.5-39.4 19.8-56.6 33.6-18.2 14.6-24.1 39.4-14.4 60.2 5.5 11.7 4.9 25.3-1.6 36.5-6.1 10.5-16.4 17.5-28.5 19.3-22.9 3.4-40.4 21.8-42.6 44.7-0.7 7.5-1.1 15.2-1.1 22.8 0 9.6 0.6 19.3 1.7 28.7 2.8 22.7 20.5 40.6 43.2 43.5 12.4 1.6 23 8.7 29.2 19.4 6.3 10.9 7 23.8 2 35.4-9 20.9-2.7 45.3 15.5 59.3 16.2 12.5 34 22.8 52.8 30.7 21.2 8.9 45.6 2.3 59.3-15.9 7.5-10 19.1-15.8 31.6-15.8s24 5.8 31.6 15.8c13.7 18.3 38.1 24.8 59.3 15.9 18.8-7.9 36.6-18.2 52.8-30.7 18.2-14 24.5-38.4 15.5-59.3-5-11.6-4.3-24.5 2-35.5 6.2-10.8 16.9-17.8 29.2-19.4 22.7-2.9 40.4-20.8 43.2-43.5 1.2-9.5 1.7-19.1 1.7-28.7 0-7.6-0.4-15.3-1.1-22.8-2.2-23-19.7-41.4-42.6-44.7-12-1.8-22.4-8.8-28.5-19.3-6.4-11.1-7-24.8-1.6-36.5 9.7-20.9 3.8-45.6-14.4-60.2-17.2-13.8-36.3-25.1-56.6-33.6-6-2.6-12.5-3.8-19-3.8zM608 14c0-0.1 0.1-0.2 0.3-0.3 13.5-10.9 28.4-19.7 44.4-26.4 16.8 22.4 43.6 35.8 71.6 35.8 28 0 54.7-13.4 71.6-35.8 15.9 6.7 30.9 15.6 44.4 26.4l0.3 0.3c-12.2 26.4-10.9 57.2 3.7 82.4 13.7 23.8 37.2 39.8 64.5 43.8 0 0 0.1 0 0.1 0.1 0.6 5.9 0.9 12 0.9 18 0 7.6-0.5 15.2-1.4 22.6-27.9 3.6-52 19.6-66.1 44-14.1 24.3-15.8 54.3-4.7 80.1-12.8 9.8-26.7 18-41.5 24.2h-0.1c-16.8-22.3-43.5-35.7-71.5-35.7-27.9 0-54.6 13.3-71.5 35.7h-0.1c-14.8-6.2-28.8-14.3-41.5-24.2 11.1-25.8 9.3-55.8-4.7-80.1-14.1-24.4-38.1-40.4-66.1-44-0.9-7.4-1.4-15.1-1.4-22.6 0-6 0.3-12 0.9-18 0-0.1 0.1-0.1 0.1-0.1 27.2-4 50.7-20 64.5-43.8 14.1-25.2 15.5-56 3.3-82.4zM724.2 71.8c-47.6 0-86.4 38.7-86.4 86.4s38.7 86.4 86.4 86.4 86.4-38.7 86.4-86.4-38.8-86.4-86.4-86.4z m0 122.8c-20.1 0-36.4-16.3-36.4-36.4s16.3-36.4 36.4-36.4 36.4 16.3 36.4 36.4-16.4 36.4-36.4 36.4zM455.5 2H139.4c-41.4 0-75 33.6-75 75V755.7c0 41.4 33.6 75 75 75h678.7c41.4 0 75-33.6 75-75v-314.9c0-13.8-11.2-25-25-25s-25 11.2-25 25V755.7c0 13.8-11.2 25-25 25H139.4c-13.8 0-25-11.2-25-25V77c0-13.8 11.2-25 25-25h316.1c13.8 0 25-11.2 25-25s-11.2-25-25-25z"  horiz-adv-x="1024" />

    
    <glyph glyph-name="sanjiao_xia" unicode="&#58904;" d="M76.63342934 595.34606186l439.36305302-439.36305304 438.03170133 438.03170133z"  horiz-adv-x="1024" />

    
    <glyph glyph-name="xitongpeizhi" unicode="&#58906;" d="M947.0634541 191.34197724h-362.13725654a14.98691075 14.98691075 0 0 0-15.04262461 14.65263018v34.82089014a14.81977089 14.81977089 0 0 0 15.04262461 14.70834405h362.13725655a14.87548388 14.87548388 0 0 0 14.87548388-14.70834405v-34.82089014a14.76405703 14.76405703 0 0 0-14.87548388-14.65263018z m1e-8-128.64229628h-362.13725655a14.98691075 14.98691075 0 0 0-15.04262461 14.70834404v34.82089013a14.93119776 14.93119776 0 0 0 15.04262461 14.70834405h362.13725654a14.93119776 14.93119776 0 0 0 14.87548389-14.70834405v-34.70946328a14.98691075 14.98691075 0 0 0-14.87548389-14.81977089z m0-128.58658242h-362.13725655a14.98691075 14.98691075 0 0 0-15.04262461 14.65263017v34.82089014a14.81977089 14.81977089 0 0 0 15.04262461 14.70834404h362.13725654a14.87548388 14.87548388 0 0 0 14.87548389-14.70834404v-34.70946328a15.04262461 15.04262461 0 0 0-14.87548389-14.76405703z m-442.36458721 327.09351182v-65.29613292c-105.40979824 0-191.26418467 84.40583731-191.26418467 188.25565957S399.1776418 572.1432298899999 504.6988669 572.1432298899999s191.31989766-84.18298359 191.31989853-187.97709288a186.24997617 186.24997617 0 0 0-11.14268467-64.3490042H611.00007998a120.45242285 120.45242285 0 0 1 18.71971084 64.3490042 124.96521006 124.96521006 0 1 1-125.02092392-122.95952665z m-15.76689873-261.85309278a15.59975888 15.59975888 0 0 0 15.87832558-15.54404502v-34.26375586a15.76689873 15.76689873 0 0 0-15.76689873-15.54404502H426.70007334a55.71342422 55.71342422 0 0 0-56.04770391 52.42633155l-9.13700214 66.07612089A368.99000683 368.99000683 0 0 0 284.85369599 96.23916182000005l-62.45474853-25.12675372a56.43769834 56.43769834 0 0 0-74.21028047 21.3939545L69.57702529 225.60573309999995a54.5434418 54.5434418 0 0 0 18.16257656 73.98742677l53.5406001 40.83793945a323.13785888 323.13785888 0 0 0 0 87.35864941l-53.42917324 40.78222646a54.48772881 54.48772881 0 0 0-18.27400342 73.70885919l77.99879356 133.26651034a56.5491252 56.5491252 0 0 0 74.09885449 21.56109522l62.56617539-25.12675371a361.30155469 361.30155469 0 0 0 76.94023799 43.51218398l9.35985586 65.96469405A55.37914365 55.37914365 0 0 0 426.47721963 833.99632266h156.33186767a55.32342979 55.32342979 0 0 0 55.71342422-52.42633154l9.13700127-66.07612091A368.37715958 368.37715958 0 0 0 724.98974609 671.98168623l62.56617451 25.01532685a56.71626592 56.71626592 0 0 0 74.0988545-21.44966836l77.99879355-133.15508349a54.65486865 54.65486865 0 0 0-18.0511497-74.04313975l-53.5406001-40.6707996a337.1776418 337.1776418 0 0 0 0-87.35864942l26.96529727-20.6139665H797.41719688l2.28425009 12.31266621a279.06854063 279.06854063 0 0 1 0 104.01696299l-3.67708535 19.10970439 81.56445293 62.39903467-69.69749414 119.0595876-94.71282012-39.94652549-15.43261904 12.98122822A297.11969033 297.11969033 0 0 1 606.32015293 661.2847081l-18.8311377 6.74132432-13.92835605 100.28416377H435.72564864l-13.92835606-100.28416377L402.96615488 661.2847081a302.18961182 302.18961182 0 0 1-91.76000889-51.86919726L295.99638067 596.76856318 200.6707124 635.0993988299999 131.69749326 517.7669279300001l81.6201668-62.12046709-3.62137324-19.49969883a289.09695761 289.09695761 0 0 1-5.01420762-51.86919815 301.40962383 301.40962383 0 0 1 4.90278077-52.03633798l3.50994638-19.49969795-81.50873994-62.12046797 69.97606083-119.00387373L295.99638067 171.50799786000005l15.54404589-12.81408751a297.89967832 297.89967832 0 0 1 91.64858203-51.81348428l18.83113769-6.74132432 13.92835606-100.56273047z"  horiz-adv-x="1024" />

    
    <glyph glyph-name="zonglan" unicode="&#60332;" d="M360.06874999 827.686875c-6.84375001-3.339375-10.2253125-3.339375-17.07093749-6.76125-174.0515625-75.046875-290.128125-245.42625001-290.128125-439.7221875C52.86874999 118.74749999999995 267.9096875-96 530.740625-96c194.5453125 0 368.6390625 119.2903125 443.72812501 296.5565625 0 3.380625 3.421875 6.8034375 3.42187499 6.8034375 6.804375 17.0296875-3.421875 37.48125001-20.49375 44.326875-17.0709375 6.8034375-37.565625-3.421875-44.36812499-20.4525 0-3.421875-3.421875-3.421875-3.42187501-6.8446875C848.1659375 70.99687500000005 697.98875001-27.840000000000032 530.740625-27.840000000000032c-225.26625001 0-409.58624999 184.06875001-409.58625 409.0434375 0 163.6171875 98.9634375 310.1634375 245.76 374.94281251 3.3815625 3.421875 6.8034375 3.421875 13.6490625 6.80343749 17.071875 6.8446875 27.2971875 27.2971875 20.4525 44.326875-3.3815625 20.4525-23.833125 27.2559375-40.94625 20.4525z m208.19531251-409.00125h375.485625C926.6778125 616.4034375 769.6971875 776.596875 568.2640625 793.6275v-374.941875zM534.1634375 861.8296875c262.7896875 0 477.871875-214.7475 477.871875-477.20343751 0-20.4525-13.69125001-34.100625-34.14375-34.10062499H534.123125c-20.4525 0-34.14375001 13.648125-34.14375 34.10062501V827.686875c0 20.4525 13.65 34.100625 34.14375 34.100625z"  horiz-adv-x="1068" />

    
    <glyph glyph-name="shenji" unicode="&#59166;" d="M253.21739094 655.3043475m37.56521812 0l411.67304344 0q37.56521719 0 37.56521719-37.56521719l0 0q0-37.56521719-37.56521719-37.56521718l-411.67304344 0q-37.56521719 0-37.56521812 37.56521718l0 0q0 37.56521719 37.56521812 37.56521719ZM253.21739094 446.60869594m37.56521812 0l328.19478188 0q37.56521719 0 37.56521812-37.56521813l0 0q0-37.56521719-37.56521812-37.56521719l-328.19478188 0q-37.56521719 0-37.56521812 37.56521719l0 0q0 37.56521719 37.56521812 37.56521813ZM253.21739094 237.91304344000002m37.56521812 0l127.68 0q37.56521719 0 37.56521719-37.56521719l0 0q0-37.56521719-37.56521719-37.56521719l-127.68 0q-37.56521719 0-37.56521812 37.56521719l0 0q0 37.56521719 37.56521812 37.56521719ZM921.04347781 364.38260906000005V787.45043437C921.04347781 829.73217375 883.68695656 864 837.56521719 864H169.73913031C123.61739094 864 86.26086969 829.77391312 86.26086969 787.49217375v-765.24521719C86.26086969-19.99304343999995 123.61739094-54.26086969000005 169.73913031-54.26086969000005h311.6243475v75.13043532H169.73913031c-6.01043437 0-8.34782625 2.17043438-8.34782625 1.37739093V787.49217375c0-0.79304344 2.33739094 1.37739094 8.34782625 1.37739187h667.82608688c6.01043437 0 8.34782625-2.17043438 8.34782625-1.37739187v-423.15130406H921.04347781z m0 423.10956469C921.04347781 829.73217375 883.68695656 864 837.56521719 864H169.73913031C123.61739094 864 86.26086969 829.77391312 86.26086969 787.49217375v-765.24521719C86.26086969-19.99304343999995 123.61739094-54.26086969000005 169.73913031-54.26086969000005h311.6243475v75.13043532H169.73913031c-6.01043437 0-8.34782625 2.17043438-8.34782625 1.37739093V787.49217375c0-0.79304344 2.33739094 1.37739094 8.34782625 1.37739187h667.82608688c6.01043437 0 8.34782625-2.17043438 8.34782625-1.37739187v-423.15130406H921.04347781V787.49217375zM925.46782625-19.61739093999995a27.63130406 27.63130406 0 1 0-39.02608687-39.10956562l-78.46956563 78.46956562a173.50956563 173.50956563 0 1 0 39.06782625 39.06782532l78.46956563-78.46956469zM752.41739094 51.33913030999997c14.10782625 5.96869594 26.71304344 14.48347781 37.64869594 25.37739188a117.99652219 117.99652219 0 0 1 25.37739093 129.64173844 117.99652219 117.99652219 0 0 1-25.37739093 37.64869593 117.99652219 117.99652219 0 0 1-167.29043438 0 117.99652219 117.99652219 0 0 1-25.3356525-129.68347875c5.92695656-14.06608687 14.48347781-26.71304344 25.3356525-37.56521718a117.99652219 117.99652219 0 0 1 129.64173844-25.41913032z"  horiz-adv-x="1024" />

    
    <glyph glyph-name="paixu" unicode="&#59051;" d="M69.54666667 660.90666667c-19.30666667 0-34.98666667 15.68-34.98666667 34.98666666s15.68 34.98666667 34.98666667 34.98666667h424.53333333c19.30666667 0 34.98666667-15.68 34.98666667-34.98666667s-15.68-34.98666667-34.98666667-34.98666666h-424.53333333z m0-322.02666667c-19.30666667 0-34.98666667 15.68-34.98666667 34.98666667 0 19.30666667 15.68 34.98666667 34.98666667 34.98666666h282.98666666c19.30666667 0 34.98666667-15.68 34.98666667-34.98666666 0-19.30666667-15.68-34.98666667-34.98666667-34.98666667H69.54666667z m0-312.21333333c-19.30666667 0-34.98666667 15.68-34.98666667 34.98666666 0 19.30666667 15.68 34.98666667 34.98666667 34.98666667h438.4c19.30666667 0 34.98666667-15.68 34.98666666-34.98666667 0-19.30666667-15.68-34.98666667-34.98666666-34.98666666h-438.4z m661.22666666 0.85333333c-9.28 0-18.45333333 3.84-24.96 10.56L483.52 262.50666666999996c-13.54666667 13.86666667-13.44 36.16 0.32 49.81333333 6.61333333 6.61333333 15.25333333 10.13333333 24.53333333 10.13333333 9.38666667 0 18.24-3.73333333 24.96-10.45333333l163.2-165.54666667V706.24c0 19.41333333 15.68 35.09333333 34.98666667 35.09333333 19.30666667 0 34.98666667-15.78666667 34.98666667-35.09333333V149.33333332999996l162.13333333 161.38666667c6.61333333 6.61333333 15.68 10.24 25.28 10.24 9.70666667 0 18.66666667-3.62666667 25.28-10.34666667 13.76-13.76 13.86666667-36.26666667 0.21333333-50.02666666l-223.78666666-222.93333334c-6.72-6.4-15.78666667-10.13333333-24.85333334-10.13333333z"  horiz-adv-x="1024" />

    
    <glyph glyph-name="zhankai" unicode="&#58942;" d="M514.08264884 436.13128788l346.69584202 251.93534933a58.70464692 58.70464692 0 0 0 68.98772305-95.02082307l-379.95313182-276.08105258a58.50939866 58.50939866 0 0 0-22.90913152-10.08782787 58.57448076 58.57448076 0 0 0-47.96599018 9.69733133l-380.08329796 276.08105259a58.70464692 58.70464692 0 1 0 69.05280518 95.02082308l346.17518123-251.54485281z m0-318.25467878l346.69584202 251.93534937a58.70464692 58.70464692 0 0 0 68.98772305-95.02082304l-379.95313182-276.08105264a58.50939866 58.50939866 0 0 0-22.90913152-10.08782786 58.57448076 58.57448076 0 0 0-47.96599018 9.63224731l-380.08329796 276.14613664a58.70464692 58.70464692 0 0 0 69.05280518 95.02082304l346.17518123-251.54485282z"  horiz-adv-x="1024" />

    
    <glyph glyph-name="tongbu" unicode="&#58941;" d="M315.776-64.51199999999994H196.224a128.896 128.896 0 0 0-128.704 128.768V696.768c0 71.04 57.728 128.704 128.704 128.704h632.512c71.04 0 128.768-57.728 128.768-128.704v-376.896a32 32 0 0 0-64 0V696.768c0 35.712-29.056 64.704-64.768 64.704H196.224c-35.712 0-64.704-28.992-64.704-64.704v-632.512c0-35.712 28.992-64.768 64.704-64.768h119.552a32 32 0 0 0 0-64zM598.464 416.832l-118.4 115.776-118.4-115.776a32 32 0 1 1 44.8-45.76l42.56 41.6V-32a32 32 0 0 1 64 0V410.88l40.704-39.808a32 32 0 0 1 44.8 45.76z m277.312-321.152a32 32 0 0 1-45.248 0.512l-41.536-40.64V497.024a32 32 0 0 1-64 0v-441.664l-41.728 40.832a32 32 0 0 1-44.8-45.76l118.4-115.776 118.4 115.776a32 32 0 0 1 0.512 45.248z"  horiz-adv-x="1024" />

    
    <glyph glyph-name="keshihua1" unicode="&#59772;" d="M325.71636406 717.38181844C362.37090875 805.78909125 414.08 854.13818156 470.72 855.79636406c58.34181844 1.65818156 113.36727281-48.34909125 153.33818156-139.98545531 38.35636406-86.70545437 61.70181844-201.68727281 63.36-323.34545437v-21.68727282c0-116.64-18.32727281-226.64727281-53.36727281-309.99272718-36.65454563-88.32-88.32-136.66909125-144.96-138.32727282-58.34181844-1.65818156-113.36727281 48.34909125-153.33818156 138.32727282-38.35636406 86.66181844-61.65818156 201.68727281-63.36 323.34545437v21.68727281c0 118.29818156 18.32727281 228.30545437 53.32363687 311.65090969z m313.65818157-330.58909125c-3.09818156 109.87636406-21.73090875 211.89818156-55.94181844 288.82909125-31.02545437 70.60363594-69.81818156 109.83272719-108.65454563 109.87636312-37.30909125-1.57090875-74.61818156-40.84363594-102.54545437-108.30545437-29.49818156-73.78909125-46.56-172.66909125-46.56-277.83272719v-18.85090875c3.05454563-109.87636406 21.73090875-211.89818156 55.89818156-288.82909125 31.06909125-70.60363594 69.90545437-109.87636406 108.6981825-109.87636406 37.26545437 1.57090875 74.57454562 40.8 102.54545438 108.30545531 29.49818156 72.21818156 46.56 171.05454563 46.56 277.83272719v18.85090875zM390.60363594 201.03272718999995l-18.76363594 10.86545437c-104.55272719 62.26909125-192.43636406 139.98545437-248.37818156 216.48C65.6 508.05818156 49.71636406 580.6690912500001 80.34909125 630.37090875 110.10909125 678.54545438 177.74545438 699.18545438 272.65454562 686.74909125c89.67272719-11.34545437 194.09454562-50.48727281 295.11272719-108.78545531l18.76363594-10.86545438c104.55272719-62.26909125 192.43636406-139.98545437 248.3781825-216.48 59.34545437-80.50909125 75.18545437-153.16363594 44.55272719-202.8218175-29.76-48.21818156-97.44-68.81454562-192.30545438-56.3781825-89.67272719 11.34545437-194.09454562 50.48727281-296.55272812 109.61454563z m150.72 336.74181844C448.90181844 591.14181844 354.73454563 625.74545438 277.45454563 636.30545437c-72.43636406 9.55636406-125.06181844-3.09818156-145.04727282-34.60363593-19.41818156-33.6-4.84363594-86.83636406 40.8-149.06181844 49.52727281-68.07272719 128.55272719-135.22909125 222.10909125-192.87272719l16.36363594-9.38181844c91.06909125-52.58181844 185.23636406-87.27272719 263.86909125-98.57454562 72.43636406-9.51272719 125.06181844 3.14181844 145.04727281 34.60363687 19.41818156 33.64363594 4.84363594 86.88-40.8 149.10545438-49.52727281 68.07272719-128.55272719 135.18545438-222.15272812 192.82909125l-16.32 9.42545437z m232.58181844 142.86545437a98.53090875 98.53090875 0 0 1 35.95636406-134.31272719 98.53090875 98.53090875 0 0 1 134.31272718 35.95636313 98.53090875 98.53090875 0 0 1-35.95636406 134.35636406A97.44 97.44 0 0 1 773.81818156 680.64M817.01818156 494.05090875a306.67636406 306.67636406 0 0 0-33.81818156-54.15272719c-49.13454563-62.44363594-126.19636406-126.67636406-217.30909125-179.25818156l-16.32-9.42545437c-96.69818156-52.23272719-194.35636406-87.14181844-278.05090875-96.00000001-76.71272719-8.42181844-130.12363594 5.58545437-149.49818156 39.22909032-17.28 33.07636406-1.96363594 84.96 42.5018175 142.90909125 47.82545437 61.65818156 124.88727281 125.89090875 217.30909125 179.25818156l16.32 9.42545531c96.74181844 52.23272719 194.4 87.09818156 278.09454562 96 13.44 1.48363594 26.96727281 2.31272719 40.53818157 2.35636313V679.3309087499999a428.50909125 428.50909125 0 0 1-26.09454563-2.09454469c-94.21090875-10.12363594-205.44-47.38909125-311.65090875-106.7781825l-18.76363594-10.86545437c-101.01818156-58.29818156-187.11272719-129.16363594-241.78909125-201.16363594-58.16727281-75.92727281-74.18181844-144.87272719-47.30181843-194.74909125 27.70909125-51.36 98.53090875-73.96363594 196.45090968-63.62181844 94.25454563 10.12363594 205.52727281 47.43272719 311.69454469 106.82181844l18.76363688 10.82181844c102.50181844 59.17090875 188.55272719 130.03636406 243.22909031 202.03636312 15.27272719 19.89818156 27.40363594 39.27272719 36.82909125 57.94909125l-61.09090875 16.36363594z"  horiz-adv-x="1024" />

    
    <glyph glyph-name="shaixuan" unicode="&#59033;" d="M564.04767588-55.53897393l-125.39062969 64.62934366c-30.86711631 15.25074609-50.03425987 45.09657598-49.76707412 77.44728339v367.90052256a17.780233 17.780233 0 0 1-7.63767774 13.96227305L91.45647529 683.2292525400001l-3.13768828 3.47870303C61.22216972 711.76199912 54.89757529 748.97744122 70.05076279 781.57160479 84.78998633 813.80102315 119.13668545 834.52558506 156.91198906 833.98945312h782.11402558c37.79903408 0 71.85305742-20.38354717 87.56610733-52.39323896 15.59176084-31.88928252 8.9033001-69.32357138-16.95406201-94.88825859l-3.81883887-3.47870304L712.17995293 466.09068838a18.09663838 18.09663838 0 0 1-6.93191777-13.96227305v-429.65936543C705.92918662-27.031715630000008 663.04569131-65.99793456999998 610.09258994-65.99793456999998a103.81441026 103.81441026 0 0 0-46.06952343 10.45896064zM141.19806026 735.64797979L429.80296484 522.5690739300001c22.64584658-16.8573832 35.92696817-41.9351581 35.92696817-68.66703018v-367.90052256c0-6.44588349 3.13768828-12.86715762 9.46140381-15.76138974l125.36690009-63.43754942a23.03520117 23.03520117 0 0 1 19.53100986 0 18.07290791 18.07290791 0 0 1 9.43855225 15.68931943v429.00194532c0 26.8057002 12.64743193 51.81052588 35.31788789 68.71536914l289.23683643 215.34032637a16.88111367 16.88111367 0 0 1 1.87206592 18.6564999 19.16714356 19.16714356 0 0 1-17.0261332 9.89997802h-781.94351778c-7.56472852 0-13.88844492-3.47870303-17.0261332-9.89997802a16.63765752 16.63765752 0 0 1 1.26474346-18.6564999v0.07294922z m857.5670751-365.58900528H793.05759951c-20.35893779 0.48603428-36.48595166 16.05318575-36.14581493 34.90392393 0 19.2163623 16.27291231 34.90480283 36.14581493 34.90480283h205.70753585c19.87290352 0 36.14581582-15.66383115 36.14581581-34.90480283 0.36474521-9.09665859-3.25897646-17.95073994-10.06960605-24.5179125-6.81150761-6.59178193-16.22457246-10.33767158-26.07533086-10.38689034z m0-134.14715244H793.05759951c-20.35893779 0.48603428-36.48595166 16.05318575-36.14581493 34.90480283 0 19.28843262 16.27291231 34.95402158 36.14581493 34.9540207h205.70753585c19.87290352 0 36.14581582-15.73853818 36.14581581-34.9540207 0.36474521-9.09665859-3.25897646-17.97534932-10.06960605-24.56713125-6.81150761-6.56805146-16.22457246-10.28933174-26.07533086-10.33767158z m0-134.17176269H793.05759951c-20.38354717 0.48691318-36.53429151 16.10240449-36.14581493 34.97775205 0 19.14341308 16.27291231 34.90568174 36.14581493 34.90568173h205.70753585c19.87290352 0 36.14581582-15.76226865 36.14581581-34.90568173 0.29179599-9.09665859-3.35741396-17.92613057-10.14255527-24.49418203-6.81150761-6.56717256-16.17623261-10.33767158-26.00238164-10.45896065z"  horiz-adv-x="1106" />

    
    <glyph glyph-name="sanjiao_xia-copy" unicode="&#60333;" d="M286.56420068-80.39100870000004l468.65392325 468.65392322-467.23381476 467.23381475z"  horiz-adv-x="1024" />

    
    <glyph glyph-name="gongju-copy" unicode="&#60334;" d="M245.33333375 197.33333344000005c-42.66666656 0-79.99999969-37.33333312-80.00000062-79.99999969s37.33333312-79.99999969 80.00000062-80.00000062 79.99999969 37.33333312 79.99999969 80.00000062-37.33333312 79.99999969-79.99999969 79.99999969z m0-112.00000031c-16.00000031 0-26.66666625 10.66666687-26.66666719 26.66666718s10.66666687 26.66666625 26.66666719 26.66666625 26.66666625-10.66666687 26.66666625-26.66666625c0-10.66666687-16.00000031-26.66666625-26.66666625-26.66666718zM944 624c-16.00000031 5.33333344-31.99999969 0-42.66666656-10.66666687l-133.33333313-133.33333313c-5.33333344-5.33333344-21.33333375-5.33333344-32.00000062-5.33333344-48 5.33333344-101.33333344 16.00000031-106.66666594 21.33333375-5.33333344 10.66666687-16.00000031 69.33333375-21.33333375 117.33333282 0 10.66666687 0 21.33333375 5.33333344 26.66666718l133.33333312 133.33333313c5.33333344 5.33333344 16.00000031 21.33333375 10.66666688 42.66666656-5.33333344 5.33333344-10.66666687 21.33333375-37.33333313 21.33333375C618.66666688 837.33333375 485.33333375 826.66666687 416 757.33333312l-16.00000031-15.99999937C320 661.33333313 303.99999969 538.66666688 362.66666656 437.33333344l-256.00000031-223.99999969c-37.33333312-37.33333312-79.99999969-154.66666688 0-234.6666675 31.99999969-31.99999969 69.33333375-48 112.00000031-48 53.33333344 0 96 21.33333375 122.66666719 48 0 0 160.00000031 181.33333312 223.99999969 250.66666687 101.33333344-58.66666688 223.99999969-42.66666656 309.33333281 42.66666657l16.00000031 16.00000031c74.66666625 74.66666625 79.99999969 234.66666656 79.99999969 304.00000031-5.33333344 21.33333375-16.00000031 31.99999969-26.66666625 31.99999969zM298.66666625 16.00000031000002c-10.66666687-10.66666687-42.66666656-31.99999969-85.33333312-32.00000062-26.66666625 0-53.33333344 10.66666687-74.66666625 32.00000062-58.66666688 58.66666688-21.33333375 133.33333312 0 159.99999938l288 256.00000031-10.66666688 16.00000031c-53.33333344 79.99999969-48 186.66666656 21.33333375 255.99999938l15.99999938 16.00000031c53.33333344 53.33333344 160.00000031 64.00000031 224.00000062 64.00000031l-106.66666687-106.66666687c-21.33333375-21.33333375-16.00000031-64.00000031-16.00000032-69.33333375 5.33333344-85.33333312 21.33333375-133.33333312 31.99999969-149.33333344 16.00000031-16.00000031 64.00000031-26.66666625 144-37.33333313 16.00000031 0 53.33333344 0 74.66666719 21.33333375l106.66666687 106.66666688c0-69.33333375-10.66666687-175.99999969-64.00000031-224.00000063l-16.00000031-15.99999937c-69.33333375-69.33333375-175.99999969-79.99999969-261.33333281-21.33333375l-21.33333375 16.00000031-15.99999938-16.00000031"  horiz-adv-x="1024" />

    


  </font>
</defs>
</svg>
